<svg xmlns="http://www.w3.org/2000/svg" width="32" height="28.865" viewBox="-5.738 -0.958 32 28.865"><path d="M24.485-.958c-3.517.16-10.554.64-14.232 3.198C6.735-.317-.3-.797-3.82-.958c-.96 0-1.918.96-1.918 1.92v20.79c0 1.12.958 1.918 1.92 2.077 3.356.48 9.753 1.12 12.152 2.72l.48.478.64.64c.32.32 1.12.32 1.44 0l.64-.64.478-.478c2.24-1.762 8.795-2.562 12.315-2.72 1.118-.16 1.918-1.118 1.918-2.078V.962c.157-.96-.8-1.92-1.76-1.92zm-15.83 24.31c-3.52-1.6-8.477-2.56-11.195-2.72V2.72c3.198 0 8.475.8 11.194 2.718v17.912zm8.87-19.937c.948-.21 1.896-.422 2.845-.63v5.702l-.783-.784c-.17-.17-.398-.264-.638-.264s-.47.094-.64.263l-.785.785V3.415zm5.68 17.057h-.16v.16c-2.717.16-7.673 1.12-11.193 2.72V5.44c.98-.84 2.448-1.19 3.87-1.584v6.81c0 .364.22.693.557.832.11.046.228.07.344.07.234 0 .466-.093.638-.266l1.688-1.687 1.686 1.687c.258.26.646.336.983.196.335-.14.556-.47.556-.833V2.618c.36-.03.72-.055 1.03-.055v17.91z"/><path d="M-.78 7.845c2.875.295 5.446.877 7.24 1.637.105.045.214.068.32.07.364.014.713-.194.863-.548.195-.458-.02-.988-.478-1.182-1.957-.83-4.713-1.46-7.76-1.77-.5-.065-.938.308-.99.804-.05.495.31.938.806.99zM-.78 11.333c2.876.296 5.448.878 7.242 1.638.105.045.214.07.32.072.363.013.713-.195.862-.55.195-.458-.02-.988-.478-1.18-1.956-.83-4.712-1.46-7.76-1.774-.504-.056-.938.31-.99.805-.05.494.31.938.805.99zM-.78 14.82c2.874.294 5.445.876 7.24 1.637.106.044.214.067.32.07.364.014.713-.195.863-.55.195-.458-.02-.987-.478-1.182-1.958-.83-4.714-1.46-7.76-1.77-.503-.04-.94.31-.99.805-.05.495.31.94.806.99zM-.78 18.307c2.87.294 5.44.875 7.243 1.637.104.045.212.068.32.07.362.014.712-.194.86-.55.195-.458-.02-.987-.478-1.18-1.962-.83-4.718-1.46-7.76-1.772-.5-.04-.938.31-.988.807-.052.493.31.936.804.987zM21.152 13.025c-3.047.313-5.802.94-7.76 1.77-.46.195-.673.726-.478 1.184.15.353.5.562.862.55.107-.005.216-.028.32-.072 1.797-.76 4.368-1.342 7.24-1.637.495-.05.856-.492.806-.99-.05-.494-.477-.844-.99-.805zM21.152 16.512c-3.04.312-5.796.94-7.76 1.77-.458.195-.672.725-.478 1.184.15.354.5.563.862.55.107-.004.215-.026.32-.07 1.802-.764 4.373-1.344 7.24-1.638.495-.05.856-.493.806-.988-.05-.498-.477-.845-.99-.808z"/></svg>
