<svg xmlns="http://www.w3.org/2000/svg" width="32" height="32" viewBox="-2 0 32 32"><path d="M29.36 14.752c-1.403-1.42-2.815-2.83-4.234-4.234-.812-.802-1.805-.854-2.517-.158-.723.705-.663 1.736.15 2.578.4.412.803.822 1.352 1.386h-4.484c-.308 0-.615-.004-.922.002-1.077.024-1.79.695-1.788 1.673-.003.977.71 1.648 1.788 1.673.307.007.614.002.922.002h4.484c-.55.563-.95.974-1.35 1.386-.815.843-.875 1.874-.153 2.58.71.694 1.704.643 2.516-.158 1.42-1.404 2.83-2.814 4.233-4.235.402-.406.614-.827.64-1.247-.026-.42-.238-.84-.64-1.248zM-1.36 14.752c1.403-1.42 2.816-2.83 4.234-4.234.81-.802 1.806-.853 2.517-.158.723.705.662 1.736-.152 2.578-.398.412-.8.822-1.35 1.386h4.484c.308 0 .616-.004.922.002 1.078.024 1.79.695 1.79 1.673 0 .978-.712 1.648-1.79 1.673-.306.007-.614.002-.922.002H3.888c.55.563.952.974 1.35 1.386.814.843.875 1.874.153 2.58-.71.694-1.705.643-2.516-.158-1.418-1.404-2.83-2.814-4.233-4.234C-1.76 16.84-1.974 16.42-2 16c.025-.42.238-.84.64-1.248zM12.763.64c-1.42 1.403-2.83 2.816-4.234 4.234-.803.81-.855 1.806-.16 2.517.706.723 1.738.662 2.58-.152.41-.398.82-.8 1.385-1.35v4.484c0 .308-.004.616.002.922.025 1.078.695 1.79 1.674 1.788.98.002 1.65-.71 1.675-1.788.007-.307.002-.615.002-.922V5.888l1.386 1.35c.842.814 1.873.875 2.578.153.695-.71.646-1.705-.157-2.516C18.09 3.456 16.68 2.044 15.26.64c-.407-.4-.828-.615-1.25-.64-.42.025-.84.24-1.247.64zM12.763 31.358c-1.42-1.403-2.83-2.814-4.234-4.233-.803-.81-.854-1.806-.16-2.517.706-.722 1.737-.662 2.58.153.41.4.82.802 1.385 1.352v-4.485c0-.31-.004-.615.002-.922.024-1.077.695-1.79 1.674-1.79.98 0 1.65.713 1.675 1.79.006.307.002.613.002.922v4.485c.563-.55.975-.952 1.386-1.35.842-.816 1.873-.876 2.578-.154.696.71.645 1.706-.156 2.517-1.404 1.42-2.814 2.83-4.234 4.233-.407.402-.828.615-1.248.642-.422-.026-.843-.24-1.25-.642z"/></svg>
