<svg xmlns="http://www.w3.org/2000/svg" width="25.6" height="32" viewBox="-10.8 -15 25.6 32"><path d="M-3.962 9.412c-.25 0-.46.082-.625.246-.167.15-.25.35-.25.598 0 .246.083.453.25.615.166.166.375.242.625.227h5.94c.25.015.46-.06.626-.226.167-.162.25-.37.25-.614 0-.233-.083-.432-.25-.598-.166-.164-.376-.246-.625-.246h-5.942zm0-3.352c-.25-.014-.46.06-.625.226-.167.15-.25.35-.25.597s.083.452.25.616c.166.164.375.24.625.226H7.962c.25.015.46-.062.625-.227.167-.165.25-.37.25-.617 0-.22-.083-.413-.25-.577-.166-.165-.375-.246-.625-.246H-3.962zm0-3.373c-.25 0-.46.082-.625.246-.167.164-.25.364-.25.598 0 .233.083.432.25.597.166.165.375.247.625.247H7.962c.25 0 .46-.083.625-.247.167-.165.25-.37.25-.617 0-.22-.083-.413-.25-.576-.166-.165-.375-.247-.625-.247H-3.962zm0-3.374c-.25 0-.46.083-.625.247-.167.164-.25.364-.25.597 0 .232.083.432.25.596.166.164.375.247.625.247H7.962c.25 0 .46-.083.625-.247.167-.164.25-.364.25-.596 0-.233-.083-.433-.25-.597-.166-.164-.375-.247-.625-.247H-3.962zm8.38-11.66l7.776 7.938c.6.63.896 1.29.896 1.976v15.218c.016.7-.23 1.296-.73 1.79s-1.103.74-1.813.74H-6.548c-.693 0-1.292-.246-1.792-.74s-.75-1.09-.75-1.79v-23.587c-.015-.7.228-1.296.73-1.79.5-.493 1.104-.74 1.812-.74h8.964c.694 0 1.363.328 2.003.986zM-6.547-15c-1.167 0-2.166.41-3 1.234-.834.822-1.25 1.81-1.25 2.962v23.587c0 1.167.416 2.16 1.25 2.982.834.823 1.835 1.234 3 1.234h17.093c1.17 0 2.17-.412 3.002-1.235.837-.822 1.253-1.816 1.253-2.982V-2.435c.013-1.152-.445-2.194-1.377-3.126l-7.817-7.96c-.848-.987-1.91-1.48-3.19-1.48h-8.964z"/></svg>
