<svg xmlns="http://www.w3.org/2000/svg" width="25.6" height="32" viewBox="-10.8 -15 25.6 32"><path d="M-.544 12.783c-.25 0-.458.083-.626.248-.166.165-.25.363-.25.597 0 .234.083.433.25.597.168.164.376.246.626.246H.27c.25 0 .46-.082.625-.246.167-.163.25-.363.25-.597 0-.233-.083-.43-.25-.596-.167-.165-.377-.247-.626-.247h-.814zm-2.564-1.686c-.25 0-.458.083-.625.247-.167.164-.25.364-.25.597 0 .235.083.434.25.6.167.162.375.244.625.244h.814c.25 0 .458-.082.625-.245.168-.165.25-.365.25-.6 0-.232-.082-.43-.25-.596-.166-.166-.374-.247-.624-.247h-.814zm2.564-1.685c-.25 0-.458.082-.626.246-.166.15-.25.35-.25.598 0 .246.083.453.25.615.168.166.376.242.626.227H.27c.25.015.46-.06.625-.226.167-.162.25-.37.25-.614 0-.233-.083-.432-.25-.598C.73 9.494.518 9.412.27 9.412h-.814zm-1.75 0c.25.014.458-.063.625-.226.168-.164.25-.37.25-.617 0-.234-.082-.434-.25-.598-.166-.165-.374-.246-.624-.246h-.814c-.25 0-.458.082-.625.246-.167.15-.25.35-.25.597 0 .245.083.452.25.616.167.164.375.24.625.226h.814zm1.75-3.352c-.25-.014-.458.06-.626.226-.166.15-.25.35-.25.597s.083.452.25.616c.168.164.376.24.626.226H.27c.25.015.46-.062.625-.227.167-.165.25-.37.25-.617 0-.22-.083-.413-.25-.577C.73 6.143.518 6.06.27 6.06h-.814zm-1.75 0c.25 0 .458-.083.625-.247.168-.164.25-.37.25-.616 0-.22-.082-.413-.25-.577-.166-.163-.374-.245-.624-.245h-.814c-.25 0-.458.082-.625.245-.167.164-.25.365-.25.6 0 .23.083.43.25.595.167.166.375.247.625.247l.814-.002zm1.75-3.373c-.25 0-.458.082-.626.246-.166.163-.25.363-.25.597 0 .232.083.43.25.596.168.164.376.247.626.247H.27c.25 0 .46-.083.625-.247.167-.165.25-.37.25-.617 0-.22-.083-.414-.25-.577C.73 2.77.518 2.687.27 2.687h-.814zm-1.75 0c.25 0 .458-.083.625-.247s.25-.364.25-.597c0-.232-.082-.432-.25-.596C-1.836 1.083-2.044 1-2.293 1h-.814c-.25 0-.458.083-.625.247s-.25.364-.25.596c0 .233.083.432.25.597.167.165.375.247.625.247h.814zm1.75-3.374c-.25 0-.458.083-.626.247-.166.164-.25.364-.25.596 0 .233.083.433.25.597C-1 .917-.794 1-.544 1H.27C.52 1 .73.917.894.753s.25-.364.25-.597c0-.232-.083-.432-.25-.596S.518-.687.27-.687h-.814zm-.208-5.265c-.14.124-.298.186-.48.186h-.375c-.195 0-.354-.062-.48-.186-.124-.122-.187-.28-.187-.472v-.66c.014-.217.125-.327.334-.327h1.063c.208.012.313.123.313.327v.66c0 .19-.063.35-.188.47zm-2.356-3.165c-.25 0-.458.082-.625.247-.167.164-.25.37-.25.616v4.997c-.015.494.145.905.48 1.234.333.33.756.493 1.27.493h1.626c.5.015.917-.144 1.25-.472.334-.33.502-.748.502-1.255v-4.997c0-.247-.083-.452-.25-.616C.73-9.036.518-9.117.27-9.117H-3.11zm15.468 23.69c-.5.494-1.105.74-1.813.74H-1.42c0-.233-.083-.43-.25-.597-.167-.164-.375-.247-.625-.247h-.814c-.25 0-.457.082-.624.246-.167.166-.25.364-.25.597h-2.564c-.694 0-1.293-.246-1.793-.74s-.75-1.09-.75-1.79v-23.587c-.016-.7.228-1.296.73-1.79.5-.493 1.104-.74 1.812-.74h8.964c.708.014 1.375.343 2 .988l7.777 7.938c.598.63.896 1.288.896 1.975v15.217c0 .7-.243 1.295-.73 1.79zM14.8-2.435c.013-1.152-.445-2.194-1.377-3.126l-7.817-7.96c-.848-.987-1.91-1.48-3.19-1.48h-8.963c-1.168 0-2.167.41-3 1.234-.835.822-1.252 1.81-1.252 2.962v23.587c0 1.167.418 2.16 1.25 2.982C-8.715 16.59-7.714 17-6.547 17h17.095c1.167 0 2.167-.41 3-1.234.834-.822 1.25-1.816 1.25-2.982l.002-15.22z"/></svg>
