<svg xmlns="http://www.w3.org/2000/svg" width="32" height="32" viewBox="0 0 32 32"><path d="M17.824 14.177v-5.47c0-.8-.658-1.457-1.458-1.457h-.73c-.8 0-1.46.657-1.456 1.458v5.47H8.71c-.804 0-1.46.655-1.46 1.456v.73c0 .802.656 1.46 1.458 1.46h5.468v5.47c0 .798.656 1.455 1.458 1.455h.73c.8 0 1.46-.657 1.46-1.457v-5.47h5.47c.8 0 1.456-.658 1.456-1.458v-.73c0-.8-.655-1.458-1.456-1.457h-5.47z"/><path d="M16 0C7.2 0 0 7.2 0 16s7.2 16 16 16 16-7.2 16-16S24.8 0 16 0zm0 29.333c-7.333 0-13.333-6-13.333-13.333S8.667 2.667 16 2.667s13.333 6 13.333 13.333-6 13.333-13.333 13.333z"/></svg>
