<svg xmlns="http://www.w3.org/2000/svg" width="32" height="32" viewBox="0 0 32 32"><path d="M24.547 12q.563 0 .797.484l.938 1.859q.109.25.125.453 0 .641-.625.906-1.688.703-2.531 1.953t-.844 2.328q0 .734.844.813 5.531.516 5.547 4.641 0 2.219-1.625 3.594t-4.219 1.375-4.375-1.938-1.781-5.156q0-5.063 3.563-8.625 1.859-1.859 3.828-2.625.203-.063.359-.063zm-13.609 0q.563 0 .813.484l.938 1.859q.109.25.109.453 0 .641-.625.906-1.688.703-2.531 1.953t-.844 2.328q0 .734.859.813 1.766.156 3.016.734 2.531 1.156 2.531 3.906-.016 2.219-1.641 3.594t-4.219 1.375-4.375-1.938-1.766-5.156q0-5.016 3.547-8.625 1.844-1.844 3.844-2.625.188-.063.344-.063z"/></svg>
