<svg xmlns="http://www.w3.org/2000/svg" width="540" height="900" viewBox="0 0 540 900"><g fill="rgba(45,45,45,.05)"><path d="M540 105v30M0 660v.01-.02M15 75h90c8.25 0 15-6.75 15-15s-6.75-15-15-15H15C6.75 45 0 51.75 0 60s6.75 15 15 15zM30 0H0v15h15c8.25 0 15-6.75 15-15zM60 120c0-8.25-6.75-15-15-15H0v30h45c8.25 0 15-6.75 15-15zM15 195h120c8.25 0 15-6.75 15-15s-6.75-15-15-15H15c-8.25 0-15 6.75-15 15s6.75 15 15 15zM120 300c0-8.25-6.75-15-15-15H0v30h105c8.25 0 15-6.75 15-15zM255 135c8.25 0 15-6.75 15-15s-6.75-15-15-15-15 6.75-15 15 6.75 15 15 15zM255 255h60c8.25 0 15-6.75 15-15s-6.75-15-15-15h-60c-8.25 0-15 6.75-15 15s6.75 15 15 15zM75 15c8.25 0 15-6.75 15-15H60c0 8.25 6.75 15 15 15zM165 75c8.25 0 15-6.75 15-15s-6.75-15-15-15-15 6.75-15 15 6.75 15 15 15zM225 75c8.25 0 15-6.75 15-15s-6.75-15-15-15-15 6.75-15 15 6.75 15 15 15zM285 75h60c8.25 0 15-6.75 15-15s-6.75-15-15-15h-60c-8.25 0-15 6.75-15 15s6.75 15 15 15zM405 75h90c8.25 0 15-6.75 15-15s-6.75-15-15-15h-90c-8.25 0-15 6.75-15 15s6.75 15 15 15zM135 15h120c8.25 0 15-6.75 15-15H120c0 8.25 6.75 15 15 15zM210 120c0-8.25-6.75-15-15-15h-90c-8.25 0-15 6.75-15 15s6.75 15 15 15h90c8.25 0 15-6.75 15-15zM300 120c0 8.25 6.75 15 15 15h150c8.25 0 15-6.75 15-15s-6.75-15-15-15H315c-8.25 0-15 6.75-15 15zM330 180c0-8.25-6.75-15-15-15H195c-8.25 0-15 6.75-15 15s6.75 15 15 15h120c8.25 0 15-6.75 15-15zM435 165h-60c-8.25 0-15 6.75-15 15s6.75 15 15 15h60c8.25 0 15-6.75 15-15s-6.75-15-15-15zM495 165c-8.25 0-15 6.75-15 15s6.75 15 15 15 15-6.75 15-15-6.75-15-15-15zM360 240c0 8.25 6.75 15 15 15h165v-30H375c-8.25 0-15 6.75-15 15zM510 120c0 8.25 6.75 15 15 15h15v-30h-15c-8.25 0-15 6.75-15 15zM315 15c8.25 0 15-6.75 15-15h-30c0 8.25 6.75 15 15 15zM375 15h165V0H360c0 8.25 6.75 15 15 15zM300 300c0-8.25-6.75-15-15-15H165c-8.25 0-15 6.75-15 15s6.75 15 15 15h120c8.25 0 15-6.75 15-15zM420 300c0 8.25 6.75 15 15 15h105v-30H435c-8.25 0-15 6.75-15 15zM330 300c0 8.25 6.75 15 15 15h30c8.25 0 15-6.75 15-15s-6.75-15-15-15h-30c-8.25 0-15 6.75-15 15zM450 600c0 8.25 6.75 15 15 15h75v-30h-75c-8.25 0-15 6.75-15 15zM540 660.01v-.02.01M510 540c0 8.25 6.75 15 15 15h15v-30h-15c-8.25 0-15 6.75-15 15zM420 480c0 8.25 6.75 15 15 15h105v-30H435c-8.25 0-15 6.75-15 15zM435 405c-8.25 0-15 6.75-15 15s6.75 15 15 15h105v-30H435zM450 360c0 8.25 6.75 15 15 15h75v-30h-75c-8.25 0-15 6.75-15 15zM315 555c8.25 0 15-6.75 15-15s-6.75-15-15-15-15 6.75-15 15 6.75 15 15 15zM315 405h-60c-8.25 0-15 6.75-15 15s6.75 15 15 15h60c8.25 0 15-6.75 15-15s-6.75-15-15-15zM495 675c8.25 0 15-6.75 15-15s-6.75-15-15-15-15 6.75-15 15 6.75 15 15 15zM420 600c0-8.25-6.75-15-15-15s-15 6.75-15 15 6.75 15 15 15 15-6.75 15-15zM330 600c0 8.25 6.75 15 15 15s15-6.75 15-15-6.75-15-15-15-15 6.75-15 15zM285 585h-60c-8.25 0-15 6.75-15 15s6.75 15 15 15h60c8.25 0 15-6.75 15-15s-6.75-15-15-15zM75 615h90c8.25 0 15-6.75 15-15s-6.75-15-15-15H75c-8.25 0-15 6.75-15 15s6.75 15 15 15zM435 645H315c-8.25 0-15 6.75-15 15s6.75 15 15 15h120c8.25 0 15-6.75 15-15s-6.75-15-15-15zM360 540c0 8.25 6.75 15 15 15h90c8.25 0 15-6.75 15-15s-6.75-15-15-15h-90c-8.25 0-15 6.75-15 15zM105 555h150c8.25 0 15-6.75 15-15s-6.75-15-15-15H105c-8.25 0-15 6.75-15 15s6.75 15 15 15zM240 480c0 8.25 6.75 15 15 15h120c8.25 0 15-6.75 15-15s-6.75-15-15-15H255c-8.25 0-15 6.75-15 15zM135 495h60c8.25 0 15-6.75 15-15s-6.75-15-15-15h-60c-8.25 0-15 6.75-15 15s6.75 15 15 15zM75 495c8.25 0 15-6.75 15-15s-6.75-15-15-15-15 6.75-15 15 6.75 15 15 15zM390 420c0-8.25-6.75-15-15-15s-15 6.75-15 15 6.75 15 15 15 15-6.75 15-15zM210 420c0-8.25-6.75-15-15-15H0v30h195c8.25 0 15-6.75 15-15zM60 540c0-8.25-6.75-15-15-15H0v30h45c8.25 0 15-6.75 15-15zM105 675h150c8.25 0 15-6.75 15-15s-6.75-15-15-15H105c-8.25 0-15 6.75-15 15s6.75 15 15 15zM15 675h30c8.25 0 15-6.75 15-15s-6.75-15-15-15H15c-8.247 0-14.994 6.745-15 14.99v.02C.005 668.255 6.753 675 15 675zM405 345H285c-8.25 0-15 6.75-15 15s6.75 15 15 15h120c8.25 0 15-6.75 15-15s-6.75-15-15-15zM240 360c0-8.25-6.75-15-15-15h-30c-8.25 0-15 6.75-15 15s6.75 15 15 15h30c8.25 0 15-6.75 15-15zM30 480c0-8.25-6.75-15-15-15H0v30h15c8.25 0 15-6.75 15-15zM30 600c0-8.25-6.75-15-15-15H0v30h15c8.25 0 15-6.75 15-15zM60 720c0-8.25-6.75-15-15-15H0v30h45c8.25 0 15-6.75 15-15zM240 720c0-8.25-6.75-15-15-15H105c-8.25 0-15 6.75-15 15s6.75 15 15 15h120c8.25 0 15-6.75 15-15zM360 720c0 8.25 6.75 15 15 15h165v-30H375c-8.25 0-15 6.75-15 15zM270 720c0 8.25 6.75 15 15 15h30c8.25 0 15-6.75 15-15s-6.75-15-15-15h-30c-8.25 0-15 6.75-15 15zM375 855h60c8.25 0 15-6.75 15-15s-6.75-15-15-15h-60c-8.25 0-15 6.75-15 15s6.75 15 15 15zM525 765H405c-8.25 0-15 6.75-15 15s6.75 15 15 15h120c8.25 0 15-6.75 15-15s-6.75-15-15-15zM315 825h-60c-8.25 0-15 6.75-15 15s6.75 15 15 15h60c8.25 0 15-6.75 15-15s-6.75-15-15-15zM480 840c0 8.25 6.75 15 15 15h45v-30h-45c-8.25 0-15 6.75-15 15zM195 825c-8.25 0-15 6.75-15 15s6.75 15 15 15 15-6.75 15-15-6.75-15-15-15zM150 840c0-8.25-6.75-15-15-15H0v30h135c8.25 0 15-6.75 15-15zM345 765H225c-8.25 0-15 6.75-15 15s6.75 15 15 15h120c8.25 0 15-6.75 15-15s-6.75-15-15-15zM75 765H45c-8.25 0-15 6.75-15 15s6.75 15 15 15h30c8.25 0 15-6.75 15-15s-6.75-15-15-15zM165 765h-30c-8.25 0-15 6.75-15 15s6.75 15 15 15h30c8.25 0 15-6.75 15-15s-6.75-15-15-15zM15 885H0v15h30c0-8.25-6.75-15-15-15zM75 885c-8.25 0-15 6.75-15 15h30c0-8.25-6.75-15-15-15zM255 885H135c-8.25 0-15 6.75-15 15h150c0-8.25-6.75-15-15-15zM315 885c-8.25 0-15 6.75-15 15h30c0-8.25-6.75-15-15-15zM360 900h180v-15H375c-8.25 0-15 6.75-15 15z"/></g><path fill="rgba(45,45,45,.05)" d="M30 360c0-8.25-6.75-15-15-15H0v30h15c8.25 0 15-6.75 15-15zM75 375c8.25 0 15-6.75 15-15s-6.75-15-15-15-15 6.75-15 15 6.75 15 15 15zM135 375c8.25 0 15-6.75 15-15s-6.75-15-15-15-15 6.75-15 15 6.75 15 15 15zM60 240c0-8.25-6.75-15-15-15H0v30h45c8.25 0 15-6.75 15-15zM210 240c0-8.25-6.75-15-15-15h-90c-8.25 0-15 6.75-15 15s6.75 15 15 15h90c8.25 0 15-6.75 15-15z"/></svg>
