<svg xmlns="http://www.w3.org/2000/svg" version="1.1" id="logo-default" class="logo-default" x="0" y="0" width="540.24" height="50" viewBox="792.22 79.19 540.24 50" enable-background="new 792.221 79.191 540.243 50" xml:space="preserve">
  <path class="logo-symbol" d="M883.4 122.33c-0.1 1.44-0.46 2.86-2.04 3.56 -0.65 0.29-1.27 0.32-1.86 0.03 -1.76-0.88-3.6-1.59-5.31-2.6 -1.12-0.66-1.77-1.6-2.02-2.85 -0.16-1.41-0.32-2.82-0.48-4.23 -0.21-1.75-0.52-3.5-0.62-5.26 -0.39-3.31-0.81-6.04-1.07-9.11 -0.01-0.94-0.47-1.57-1.28-2.05 -4.77-2.87-9.55-5.72-14.42-8.43 -1.54-0.86-3.44-1.73-3.57-3.67 -0.18-2.66-0.17-5.43 1.45-7.81 0.54-0.79 1.55-0.83 2.23-0.57 6.33 1.59 6.33 1.59 9.5 2.34 5.93 1.4 11.84 2.86 17.82 4.04 1.29 0.26 2.59 0.63 3.88 0.97 1.53 0.4 1.71 0.87 1.55 2.58 -0.39 4.4-1.14 8.75-1.6 13.15 -0.36 3.45-0.73 6.92-1.17 10.37L883.4 122.33z"/>
  <path class="logo-path" d="M830.85 106.46c-1.32-0.07-2.21 0.75-3.24 1.18 -0.49 0.2-0.93 0.53-1.42 0.68 -0.53 0.16-1.23 0.35-1.5-0.33 -0.26-0.67-0.1-1.25 0.69-1.7 2.26-1.28 4.62-2.39 6.72-3.94 0.52-0.38 0.97-0.87 1.47-1.28 0.42-0.35 0.93-0.43 1.33-0.03 0.43 0.43 0.38 0.98-0.02 1.43 -0.35 0.4-0.77 0.72-1.14 1.11 -0.5 0.54-0.8 1.15-0.37 1.87 0.27 0.45 0.22 0.87-0.11 1.23 -0.36 0.39-0.79 0.32-1.21 0.05C831.65 106.49 831.22 106.38 830.85 106.46z"/>
  <path class="logo-path" d="M792.22 82.87c0.13-0.57-0.19-1.19 0.2-1.77 0.25-0.38 0.42-0.85 0.97-0.78 0.5 0.07 0.95 0.31 1.08 0.85 0.31 1.27 0.31 2.55-0.02 3.83 -0.13 0.51-0.55 0.75-0.97 0.8 -0.42 0.05-0.65-0.36-0.9-0.69C792.05 84.41 792.3 83.63 792.22 82.87z"/>
  <path class="logo-path" d="M852.88 106.02c0.97-0.03 1.48 0.15 1.6 0.85 0.11 0.65-0.17 1.11-0.81 1.3 -0.93 0.26-1.85 0.56-2.8 0.74 -0.67 0.13-1.32-0.01-1.47-0.87 -0.14-0.8 0.1-1.34 0.97-1.5C851.31 106.36 852.26 106.15 852.88 106.02z"/>
  <path class="logo-path" d="M867.13 101.14c0.42-0.03 0.71 0.35 0.95 0.71 0.26 0.39-0.07 0.68-0.34 0.92 -1.12 0.99-2.47 1.51-3.9 1.88 -0.51 0.13-0.72-0.17-0.87-0.45 -0.25-0.45-0.26-0.98 0.21-1.32C864.33 102.04 865.64 101.52 867.13 101.14z"/>
  <path class="logo-path" d="M820.16 89.79c0.06 0.47-0.11 1.23-0.29 1.98 -0.14 0.57-0.56 1.1-1.23 0.92 -0.67-0.18-1.36-0.58-1.15-1.47 0.22-0.9 0.43-1.79 0.56-2.71 0.09-0.65 0.59-1.01 1.34-0.91 0.75 0.09 0.79 0.57 0.77 1.14C820.15 88.98 820.16 89.22 820.16 89.79z"/>
  <path class="logo-path" d="M819.71 109.95c-0.92-0.15-1.69 0.2-2.06-0.71 -0.32-0.77-0.05-1.46 0.78-1.48 1.02-0.03 2.02-0.2 3.02-0.29 0.66-0.06 1.27 0.01 1.38 0.81s-0.46 1.2-1.13 1.33C820.95 109.75 820.22 110.12 819.71 109.95z"/>
  <path class="logo-path" d="M839.03 108.76c-1.06-0.27-2.06-0.51-3.06-0.79 -0.58-0.16-0.94-0.59-0.76-1.19 0.19-0.64 0.71-1.05 1.39-0.93 1.03 0.18 2.04 0.46 3.05 0.74 0.51 0.14 0.9 0.54 0.8 1.07C840.32 108.41 839.6 108.51 839.03 108.76z"/>
  <path class="logo-path" d="M860.04 104.03c0.6-0.05 1.09 0.14 1.27 0.73 0.19 0.63-0.21 1-0.73 1.23 -0.93 0.4-1.86 0.81-2.82 1.14 -0.63 0.21-1.28 0.1-1.46-0.66 -0.15-0.63-0.01-1.2 0.77-1.43C858.07 104.73 858.97 104.12 860.04 104.03z"/>
  <path class="logo-path" d="M811.94 106.95c0.91 0.16 1.95 0.32 2.97 0.54 0.52 0.11 0.82 0.47 0.84 1.05 0.02 0.62-0.38 1.02-0.86 0.99 -1.25-0.08-2.56 0.18-3.72-0.61 -0.59-0.4-0.64-0.92-0.49-1.48C810.82 106.86 811.38 107.01 811.94 106.95z"/>
  <path class="logo-path" d="M805.27 104.81c0.99 0.37 2.34 0.78 3.47 1.67 0.28 0.22 0.43 0.5 0.14 0.83 -0.37 0.43-0.81 0.99-1.38 0.76 -1.08-0.43-2.2-0.77-3.15-1.52 -0.38-0.3-0.74-0.55-0.57-1.06C803.95 104.98 804.35 104.72 805.27 104.81z"/>
  <path class="logo-path" d="M799.2 100.36c0.31-0.02 0.56 0.1 0.77 0.31 0.81 0.8 1.62 1.6 2.44 2.4 0.32 0.32 0.51 0.67 0.11 1.05 -0.34 0.33-0.64 0.81-1.23 0.48 -1.19-0.65-2.24-1.48-2.84-2.71C798.05 101.1 798.48 100.36 799.2 100.36z"/>
  <path class="logo-path" d="M819.96 85.13c-0.04-1.43 2.06-3.52 3.44-3.38 0.84 0.09 0.86 0.76 0.57 1.27 -0.68 1.22-1.68 2.18-2.91 2.85C820.29 86.3 819.98 86.06 819.96 85.13z"/>
  <path class="logo-path" d="M821.66 98.32c0.05 0.58-0.19 0.92-0.71 1.15 -0.56 0.25-0.76-0.2-0.97-0.48 -0.72-0.93-1.23-1.99-1.66-3.09 -0.21-0.53 0.06-0.86 0.4-1.15 0.4-0.33 0.96-0.37 1.21 0.02C820.64 95.88 821.51 96.94 821.66 98.32z"/>
  <path class="logo-path" d="M797.86 98.42c0.01 0.46-0.14 0.78-0.58 0.98 -0.48 0.22-0.8-0.05-1.05-0.35 -0.8-0.96-1.23-2.14-1.73-3.27 -0.22-0.49 0.14-0.98 0.55-1.22 0.38-0.23 0.8-0.14 1.16 0.29C797.09 95.91 797.63 97.09 797.86 98.42z"/>
  <path class="logo-path" d="M827.83 80.74c0.84-0.08 1.67 0.06 2.46 0.42 0.54 0.25 0.92 0.64 0.73 1.21 -0.17 0.52-0.64 0.92-1.24 0.78 -1.11-0.27-2.21-0.47-3.36-0.51 -0.62-0.02-0.59-0.58-0.6-1.02 -0.01-0.5 0.16-0.88 0.76-0.88C826.99 80.74 827.4 80.74 827.83 80.74z"/>
  <path class="logo-path" d="M826.2 104.06c-1.69-0.18-2.7-1.03-3.56-2.08 -0.32-0.39-0.41-0.95-0.09-1.37 0.36-0.45 0.9-0.31 1.34-0.06 1 0.55 2 1.1 2.78 1.97 0.3 0.34 0.44 0.67 0.21 1.1C826.67 104.01 826.33 104.07 826.2 104.06z"/>
  <path class="logo-path" d="M793.75 87.65c0.56 0.05 0.94 0.34 1.08 0.86 0.27 0.97 0.52 1.95 0.72 2.94 0.16 0.82-0.53 1.1-1.07 1.24 -0.66 0.17-1.14-0.44-1.21-0.94 -0.14-1.07-0.44-2.13-0.34-3.24C792.97 87.89 793.33 87.77 793.75 87.65z"/>
  <path class="logo-path" d="M844.79 106.97c0.53 0 1.06 0 1.59 0 0.56 0 0.97 0.16 1 0.8 0.03 0.56-0.06 0.93-0.74 1.18 -1.32 0.5-2.56-0.18-3.84-0.09 -0.56 0.04-0.54-0.61-0.53-1.06 0-0.45 0.15-0.81 0.69-0.82 0.61-0.01 1.22 0 1.83 0C844.79 106.98 844.79 106.98 844.79 106.97z"/>
  <path class="logo-path" d="M833.4 82.94c0.99 0.02 3.26 2.03 3.41 3.02 0.11 0.75-0.53 1.22-1.28 0.81 -1.22-0.66-2.22-1.63-3.19-2.62 -0.23-0.24-0.15-0.5 0.01-0.77C832.59 82.93 832.99 82.95 833.4 82.94z"/>
  <path class="logo-path" d="M839.79 91.96c0.03 0.41-0.02 1.13-0.86 1.23 -0.84 0.1-1.05-0.56-1.18-1.25 -0.16-0.88-0.36-1.75-0.55-2.62 -0.1-0.47-0.07-0.96 0.4-1.15 0.54-0.22 1.04-0.03 1.36 0.51C839.5 89.6 839.75 90.61 839.79 91.96z"/>
  <path class="logo-path" d="M839.25 95.82c-0.43 1.56-0.92 3.06-2.35 4 -0.23 0.15-0.48 0.27-0.74-0.02 -0.27-0.3-0.68-0.56-0.44-1.02 0.59-1.15 1.2-2.29 1.87-3.4 0.21-0.35 0.65-0.46 1.09-0.24C838.98 95.29 839.23 95.47 839.25 95.82z"/>
  <path class="logo-text" d="M1189.04 120.61h-1.88c-0.23 0-0.41-0.06-0.54-0.18 -0.13-0.12-0.22-0.27-0.27-0.45l-2.46-10.09h-15.45l-4.95 10.09c-0.08 0.18-0.21 0.33-0.39 0.45 -0.18 0.12-0.37 0.18-0.58 0.18h-1.85l17.21-34.49h2.41L1189.04 120.61zM1169.32 108.11h14.14l-4.27-17.55c-0.06-0.29-0.13-0.61-0.19-0.96 -0.06-0.35-0.13-0.72-0.19-1.11 -0.16 0.39-0.32 0.76-0.48 1.12s-0.3 0.68-0.43 0.98L1169.32 108.11z"/>
  <path class="logo-text" d="M1206.19 118.54c-0.77 0.62-1.53 1.11-2.27 1.46s-1.49 0.6-2.25 0.73c-0.76 0.13-1.58 0.2-2.44 0.2 -1.4 0-2.61-0.24-3.64-0.72 -1.03-0.48-1.89-1.15-2.57-2.01 -0.68-0.86-1.19-1.89-1.54-3.07 -0.34-1.19-0.51-2.48-0.51-3.88 0-1.28 0.13-2.56 0.4-3.81 0.27-1.26 0.65-2.46 1.16-3.6 0.5-1.14 1.11-2.18 1.83-3.14 0.72-0.96 1.52-1.79 2.41-2.49s1.87-1.25 2.91-1.65 2.17-0.6 3.35-0.6c0.8 0 1.52 0.08 2.16 0.23 0.64 0.16 1.23 0.37 1.77 0.66 0.54 0.28 1.02 0.63 1.46 1.03 0.44 0.41 0.85 0.86 1.22 1.37l-0.68 0.81c-0.15 0.18-0.32 0.27-0.51 0.27 -0.16 0-0.36-0.13-0.6-0.39 -0.24-0.26-0.55-0.54-0.95-0.84 -0.4-0.3-0.91-0.58-1.55-0.84s-1.43-0.39-2.39-0.39c-1.36 0-2.64 0.37-3.81 1.1 -1.18 0.73-2.2 1.72-3.07 2.95 -0.87 1.23-1.55 2.66-2.05 4.28s-0.74 3.3-0.74 5.06c0 1.12 0.13 2.16 0.38 3.12s0.64 1.79 1.17 2.49c0.53 0.7 1.19 1.24 1.99 1.63s1.74 0.59 2.83 0.59c0.86 0 1.63-0.09 2.32-0.28 0.68-0.19 1.29-0.42 1.82-0.69 0.53-0.28 0.99-0.58 1.39-0.91 0.4-0.33 0.75-0.64 1.06-0.91s0.57-0.51 0.79-0.69c0.22-0.19 0.42-0.28 0.6-0.28s0.35 0.08 0.51 0.24l0.51 0.63C1207.78 117.14 1206.96 117.92 1206.19 118.54z"/>
  <path class="logo-text" d="M1227.93 120.61h-1.12c-0.32 0-0.55-0.09-0.66-0.27 -0.11-0.18-0.17-0.38-0.17-0.61l0.83-7.56c-0.62 1.3-1.3 2.49-2.03 3.57 -0.74 1.08-1.53 2-2.38 2.77 -0.85 0.76-1.73 1.36-2.66 1.78 -0.93 0.42-1.89 0.63-2.88 0.63 -1.01 0-1.9-0.2-2.67-0.6 -0.77-0.4-1.41-0.96-1.92-1.69s-0.9-1.62-1.16-2.66c-0.26-1.04-0.39-2.21-0.39-3.51 0-1.41 0.18-2.8 0.55-4.15 0.37-1.36 0.87-2.65 1.52-3.86 0.65-1.22 1.43-2.34 2.34-3.36s1.92-1.91 3.02-2.66c1.1-0.75 2.28-1.33 3.53-1.75 1.25-0.42 2.54-0.63 3.88-0.63 0.96 0 1.87 0.09 2.72 0.26 0.85 0.17 1.69 0.47 2.5 0.89L1227.93 120.61zM1217.62 119c0.93 0 1.84-0.26 2.73-0.78 0.89-0.52 1.75-1.25 2.57-2.19 0.82-0.94 1.59-2.08 2.3-3.4 0.72-1.32 1.36-2.79 1.93-4.4l1.24-9.97c-0.96-0.32-1.99-0.49-3.1-0.49 -1.63 0-3.18 0.4-4.66 1.19 -1.48 0.8-2.78 1.86-3.9 3.19 -1.12 1.33-2.02 2.86-2.68 4.58s-1 3.51-1 5.36c0 2.18 0.37 3.87 1.11 5.08C1214.91 118.4 1216.06 119 1217.62 119z"/>
  <path class="logo-text" d="M1249.64 120.61c-0.32 0-0.55-0.09-0.66-0.27s-0.17-0.38-0.17-0.61l0.81-7.6c-0.63 1.32-1.34 2.52-2.13 3.6 -0.79 1.08-1.62 2.01-2.5 2.78 -0.88 0.77-1.79 1.37-2.75 1.79 -0.96 0.42-1.93 0.63-2.92 0.63 -1.06 0-1.98-0.2-2.78-0.61 -0.8-0.41-1.46-0.98-2-1.73 -0.54-0.75-0.94-1.65-1.22-2.71 -0.28-1.06-0.41-2.24-0.41-3.56 0-1.23 0.13-2.5 0.39-3.79s0.63-2.54 1.11-3.75c0.48-1.21 1.06-2.35 1.76-3.41 0.69-1.06 1.48-1.99 2.35-2.79 0.88-0.8 1.84-1.43 2.88-1.89 1.04-0.46 2.15-0.69 3.34-0.69 1.32 0 2.53 0.29 3.63 0.87 1.1 0.58 2.02 1.44 2.73 2.6l1.78-14.31h2.24l-4.34 35.47H1249.64zM1240.06 119.05c0.93 0 1.85-0.26 2.78-0.77 0.93-0.51 1.82-1.24 2.69-2.18s1.68-2.08 2.44-3.4c0.76-1.32 1.43-2.79 2.01-4.4l0.85-7.02c-0.7-1.27-1.57-2.16-2.61-2.68 -1.04-0.52-2.12-0.78-3.24-0.78 -1.02 0-1.98 0.21-2.86 0.62s-1.69 0.98-2.41 1.69c-0.72 0.72-1.36 1.54-1.93 2.49 -0.56 0.94-1.03 1.94-1.41 3 -0.38 1.06-0.67 2.15-0.88 3.27 -0.2 1.12-0.3 2.2-0.3 3.24 0 2.18 0.41 3.88 1.24 5.09C1237.26 118.44 1238.47 119.05 1240.06 119.05z"/>
  <path class="logo-text" d="M1274.59 100.99c0 0.67-0.09 1.3-0.27 1.9 -0.18 0.6-0.5 1.17-0.95 1.71s-1.07 1.05-1.85 1.52c-0.78 0.48-1.78 0.92-3 1.32s-2.67 0.76-4.36 1.07c-1.69 0.32-3.67 0.6-5.95 0.84 -0.03 0.34-0.06 0.68-0.07 1.01 -0.02 0.33-0.02 0.66-0.02 0.99 0 2.42 0.55 4.31 1.65 5.68 1.1 1.36 2.75 2.05 4.96 2.05 0.86 0 1.64-0.09 2.33-0.28 0.69-0.19 1.31-0.43 1.85-0.72 0.54-0.29 1.02-0.6 1.44-0.93 0.42-0.32 0.78-0.63 1.11-0.93s0.61-0.53 0.84-0.72 0.45-0.28 0.65-0.28c0.19 0 0.37 0.08 0.51 0.24l0.54 0.63c-0.8 0.85-1.57 1.57-2.33 2.18 -0.75 0.61-1.52 1.11-2.29 1.5s-1.57 0.68-2.4 0.87c-0.83 0.19-1.71 0.28-2.66 0.28 -1.35 0-2.55-0.22-3.59-0.67 -1.05-0.45-1.93-1.08-2.64-1.9 -0.72-0.82-1.26-1.82-1.63-3s-0.56-2.5-0.56-3.96c0-1.22 0.12-2.44 0.37-3.68 0.24-1.23 0.61-2.42 1.09-3.56s1.07-2.2 1.78-3.19 1.52-1.85 2.43-2.58c0.91-0.73 1.92-1.31 3.02-1.73 1.1-0.42 2.3-0.63 3.58-0.63 1.19 0 2.19 0.17 3.01 0.5s1.49 0.75 2 1.24c0.51 0.5 0.88 1.03 1.11 1.61C1274.48 99.95 1274.59 100.49 1274.59 100.99zM1268.01 97.72c-1.3 0-2.47 0.28-3.52 0.83 -1.05 0.55-1.97 1.29-2.78 2.21s-1.48 1.98-2.02 3.19c-0.54 1.21-0.95 2.47-1.21 3.79 2.06-0.23 3.84-0.49 5.34-0.79s2.76-0.62 3.8-0.95c1.04-0.33 1.88-0.69 2.52-1.08 0.64-0.39 1.14-0.79 1.5-1.21s0.6-0.84 0.72-1.28c0.12-0.44 0.18-0.89 0.18-1.36 0-0.34-0.08-0.71-0.23-1.11 -0.15-0.4-0.41-0.76-0.77-1.08s-0.82-0.6-1.4-0.82C1269.56 97.83 1268.85 97.72 1268.01 97.72z"/>
  <path class="logo-text" d="M1276.52 120.61l2.93-24.33h1.05c0.57 0 0.85 0.29 0.85 0.88l-0.68 6.78c1.27-2.52 2.73-4.47 4.39-5.86 1.66-1.39 3.4-2.08 5.24-2.08 0.94 0 1.72 0.17 2.34 0.51 0.62 0.34 1.1 0.84 1.44 1.5 0.34 0.66 0.56 1.47 0.66 2.43 0.1 0.96 0.1 2.06 0 3.29 0.64-1.3 1.33-2.43 2.08-3.4 0.76-0.97 1.55-1.77 2.39-2.41 0.84-0.64 1.69-1.12 2.57-1.44 0.88-0.32 1.75-0.48 2.61-0.48 1.06 0 1.93 0.2 2.62 0.61 0.69 0.41 1.22 1 1.6 1.78 0.37 0.78 0.6 1.73 0.67 2.86 0.07 1.13 0.02 2.42-0.16 3.86l-1.83 15.5h-2.27l1.83-15.5c0.15-1.15 0.21-2.18 0.18-3.07 -0.02-0.89-0.15-1.64-0.39-2.25 -0.23-0.61-0.59-1.07-1.07-1.38 -0.48-0.31-1.12-0.46-1.91-0.46 -0.8 0-1.6 0.18-2.43 0.55 -0.82 0.37-1.62 0.91-2.41 1.65 -0.79 0.73-1.53 1.65-2.24 2.75 -0.71 1.11-1.34 2.4-1.91 3.9l-1.63 13.82h-2.27l1.83-15.5c0.15-1.15 0.22-2.18 0.22-3.07 0-0.89-0.11-1.64-0.32-2.25 -0.21-0.61-0.55-1.07-1.01-1.38 -0.46-0.31-1.09-0.46-1.89-0.46 -1.85 0-3.56 0.85-5.13 2.54 -1.57 1.69-2.94 4.08-4.13 7.17l-1.53 12.97H1276.52z"/>
  <path class="logo-text" d="M1315.62 128.51c-0.23 0.45-0.56 0.68-1 0.68h-1.63l5.12-9.48 -6.51-23.35h1.8c0.23 0 0.4 0.05 0.51 0.16 0.11 0.11 0.19 0.25 0.22 0.43l5.12 18.87c0.1 0.49 0.17 0.98 0.22 1.46 0.1-0.24 0.2-0.49 0.32-0.73 0.11-0.24 0.23-0.49 0.34-0.73l9.77-18.94c0.08-0.18 0.2-0.31 0.34-0.39 0.15-0.08 0.29-0.12 0.44-0.12h1.78L1315.62 128.51z"/>
  <path class="logo-text" d="M1111.88 120.18c-0.32-0.06-0.56-0.19-0.72-0.39 -0.16-0.2-0.25-0.49-0.26-0.85 -0.01-0.36 0.02-0.84 0.11-1.42l4.06-28.73c0.09-0.67 0.2-1.19 0.33-1.55 0.13-0.36 0.33-0.63 0.59-0.81 0.26-0.17 0.6-0.28 1.03-0.31 0.42-0.03 0.97-0.04 1.64-0.04h0.44c0.64 0 1.15 0.02 1.53 0.04 0.38 0.03 0.65 0.13 0.83 0.31 0.18 0.18 0.26 0.44 0.24 0.81 -0.02 0.36-0.06 0.88-0.15 1.55l-1.22 8.86c0.15-0.06 0.28-0.09 0.39-0.09 0.12 0 0.25-0.01 0.39-0.04 0.41-0.09 0.93-0.15 1.57-0.2s1.37-0.08 2.18-0.11c3.2-0.03 5.44 0.49 6.72 1.55 1.28 1.06 1.76 2.83 1.44 5.3l-1.61 11.53h0.96c0.38 0 0.68 0.13 0.9 0.39 0.22 0.26 0.3 0.58 0.24 0.96l-0.26 1.79c-0.03 0.23-0.14 0.47-0.33 0.72 -0.19 0.25-0.47 0.43-0.85 0.55h0.04c-0.15 0.06-0.63 0.18-1.46 0.35 -0.83 0.18-1.8 0.22-2.9 0.13 -0.81-0.09-1.43-0.3-1.85-0.65s-0.72-0.73-0.89-1.13c-0.17-0.41-0.26-0.8-0.26-1.18 0-0.38 0.01-0.65 0.04-0.83l1.62-11.48c0.06-0.73-0.1-1.24-0.46-1.53 -0.36-0.29-0.94-0.46-1.72-0.52 -0.79-0.06-1.59-0.04-2.4 0.04 -0.81 0.09-1.6 0.19-2.36 0.31l-1.96 14.01c-0.09 0.55-0.18 1-0.28 1.35 -0.1 0.35-0.25 0.62-0.44 0.81 -0.19 0.19-0.45 0.33-0.79 0.42 -0.33 0.09-0.76 0.15-1.29 0.18h-1.53C1112.62 120.26 1112.2 120.24 1111.88 120.18z"/>
  <path class="logo-text" d="M1100.78 109.96c-0.12 0.76-0.21 1.51-0.28 2.25 -0.07 0.74-0.02 1.3 0.15 1.68 0.18 0.41 0.52 0.64 1.05 0.7 0.52 0.06 1.08 0.06 1.66 0l0.92-0.04c0.82-0.03 1.35 0.12 1.59 0.44 0.25 0.32 0.47 0.93 0.68 1.83l0.13 0.61c0.06 0.18 0.08 0.36 0.07 0.57 -0.01 0.2-0.04 0.42-0.06 0.65 -0.06 0.47-0.25 0.81-0.59 1.03 -0.33 0.22-0.88 0.41-1.64 0.59 -0.93 0.18-1.86 0.26-2.79 0.26 -1.48 0-2.87-0.27-4.17-0.81 -1.3-0.54-2.23-1.39-2.81-2.55 -0.41-0.93-0.61-2.01-0.61-3.23 0-1.22 0.12-2.55 0.35-3.97l2.27-16.5c0.09-0.7 0.18-1.23 0.28-1.59 0.1-0.36 0.26-0.63 0.48-0.81 0.22-0.17 0.52-0.28 0.9-0.31 0.38-0.03 0.9-0.04 1.57-0.04h0.48c0.7 0 1.25 0.02 1.66 0.04 0.41 0.03 0.7 0.13 0.87 0.31s0.26 0.44 0.26 0.81 -0.04 0.9-0.13 1.59l-0.57 4.06h4.32c0.61 0 1.08 0.02 1.42 0.04 0.33 0.03 0.57 0.12 0.7 0.26 0.13 0.15 0.19 0.39 0.18 0.72 -0.02 0.33-0.06 0.81-0.15 1.42l-0.04 0.26c-0.09 0.52-0.17 0.98-0.24 1.38 -0.07 0.39-0.22 0.72-0.44 0.98 -0.22 0.26-0.52 0.46-0.89 0.59 -0.38 0.13-0.92 0.2-1.62 0.2h-4.06L1100.78 109.96z"/>
  <path class="logo-text" d="M1075.46 120.57c-0.58-0.06-1.09-0.15-1.53-0.28 -0.44-0.13-0.83-0.27-1.18-0.41 -1.75-0.84-2.98-2.2-3.69-4.06s-0.89-4.06-0.55-6.59c0.2-1.37 0.58-2.68 1.13-3.93 0.55-1.25 1.25-2.38 2.07-3.38 0.83-1 1.78-1.86 2.86-2.58s2.23-1.23 3.45-1.55c1.08-0.26 2.21-0.39 3.41-0.39 0.81 0 1.46 0.02 1.92 0.05 0.47 0.03 0.99 0.12 1.57 0.26 0.23-0.17 0.51-0.28 0.83-0.31 0.32-0.03 0.73-0.04 1.22-0.04h0.57c0.76 0 1.35 0.01 1.79 0.02 0.44 0.02 0.76 0.1 0.96 0.26 0.2 0.16 0.31 0.43 0.33 0.81 0.02 0.38-0.04 0.93-0.15 1.66l-2.18 15.54h0.92c0.41 0 0.72 0.13 0.94 0.39 0.22 0.26 0.3 0.58 0.24 0.96l-0.26 1.79c-0.06 0.32-0.16 0.57-0.31 0.77 -0.15 0.19-0.42 0.36-0.83 0.5h0.04c-0.09 0.03-0.27 0.08-0.55 0.15 -0.28 0.07-0.61 0.14-1 0.2 -0.39 0.06-0.82 0.1-1.29 0.13 -0.46 0.03-0.94 0.03-1.44 0 -1.25-0.09-2.11-0.46-2.58-1.13 -0.44 0.23-0.83 0.39-1.18 0.48 -1.31 0.49-2.77 0.74-4.37 0.74 -0.23 0-0.44 0-0.63 0 -0.19 0-0.36-0.01-0.5-0.04L1075.46 120.57 1075.46 120.57 1075.46 120.57zM1077.34 114.85c0.29 0.06 0.72 0.06 1.29 0s1.26-0.2 2.07-0.44c0.44-0.15 0.74-0.25 0.92-0.33 0.18-0.07 0.33-0.14 0.48-0.2l1.48-10.56c-0.41-0.06-0.87-0.11-1.38-0.15 -0.51-0.04-1.05-0.07-1.64-0.07 -0.96 0-1.78 0.2-2.44 0.61 -0.67 0.41-1.22 0.95-1.66 1.62 -0.44 0.67-0.76 1.43-0.98 2.27s-0.36 1.7-0.41 2.58c-0.09 0.55-0.12 1.09-0.11 1.62 0.02 0.52 0.1 1 0.24 1.42s0.39 0.78 0.74 1.07C1076.29 114.57 1076.76 114.76 1077.34 114.85z"/>
  <path class="logo-text" d="M1067.96 98.57c-0.44 3.19-1.63 5.56-3.58 7.14 -1.95 1.58-4.73 2.36-8.34 2.36h-0.92c-1.34-0.06-2.42-0.1-3.23-0.11 -0.81-0.01-1.37-0.05-1.66-0.11h-0.09v-0.05c-0.06 0.06-0.1 0.09-0.13 0.09l-1.27 9.55c-0.09 0.73-0.2 1.3-0.33 1.71s-0.32 0.71-0.57 0.89c-0.25 0.18-0.57 0.29-0.98 0.32 -0.41 0.03-0.96 0.05-1.66 0.05h-0.48c-0.67 0-1.22-0.02-1.64-0.05 -0.42-0.03-0.73-0.14-0.94-0.32 -0.2-0.18-0.32-0.48-0.35-0.89 -0.03-0.41 0-0.98 0.09-1.71l3.41-25.51c-0.58-0.24-1.03-0.54-1.35-0.89 -0.32-0.35-0.51-0.7-0.57-1.07l0.26-2.23c0.06-0.42 0.24-0.77 0.55-1.02 0.31-0.26 0.66-0.39 1.07-0.39h13.71c3.64 0 6.21 0.81 7.73 2.43 1.51 1.62 2.04 4.09 1.57 7.39L1067.96 98.57zM1056.61 101.39c2.59 0 4.05-1.15 4.37-3.46l0.18-1.45c0.32-2.33-0.81-3.5-3.4-3.5h-5.72l-1.09 8.1c0.58 0.12 1.13 0.21 1.66 0.25 0.52 0.05 1.1 0.07 1.75 0.07H1056.61L1056.61 101.39z"/>
  <path class="logo-text" d="M1033.23 97.48c0.44-0.06 1-0.11 1.68-0.15 0.68-0.04 1.36-0.06 2.03-0.06h0.35c0.44 0 0.85 0.01 1.24 0.02 0.39 0.02 0.74 0.08 1.03 0.2 0.29 0.12 0.5 0.28 0.63 0.5 0.13 0.22 0.17 0.55 0.11 0.98 -0.03 0.15-0.09 0.35-0.17 0.61 -0.09 0.26-0.17 0.51-0.26 0.74l-0.3 0.65c-0.2 0.44-0.39 0.81-0.55 1.11s-0.33 0.55-0.52 0.72 -0.42 0.29-0.7 0.35c-0.28 0.06-0.63 0.06-1.07 0 -0.52-0.09-0.98-0.13-1.35-0.13 -0.67 0-1.37 0.04-2.1 0.11 -0.73 0.07-1.4 0.18-2.01 0.33l-2.01 14.06c-0.15 1.11-0.39 1.83-0.74 2.16s-1.03 0.53-2.05 0.59h-1.57c-0.52 0-0.95-0.03-1.27-0.09 -0.32-0.06-0.56-0.19-0.72-0.39 -0.16-0.2-0.25-0.49-0.26-0.85 -0.01-0.36 0.02-0.84 0.11-1.42l2.14-14.36h-1c-0.38 0-0.68-0.13-0.92-0.39 -0.23-0.26-0.32-0.6-0.26-1l0.26-1.88c0.06-0.32 0.14-0.55 0.26-0.7 0.12-0.15 0.2-0.23 0.26-0.26 0.38-0.29 0.83-0.57 1.35-0.83 0.44-0.23 0.95-0.44 1.55-0.61 0.6-0.17 1.27-0.26 2.03-0.26 0.61 0 1.12 0.1 1.53 0.28 0.41 0.19 0.74 0.43 1 0.72C1031.66 97.87 1032.42 97.62 1033.23 97.48z"/>
  <path class="logo-text" d="M1009.69 114.72c0.49-0.03 1.09-0.08 1.79-0.15 0.7-0.07 1.53-0.21 2.49-0.41 0.38-0.06 0.69-0.11 0.94-0.15 0.25-0.04 0.49-0.06 0.72-0.06 0.61 0 1.01 0.19 1.2 0.57 0.19 0.38 0.4 1.02 0.63 1.92 0.12 0.5 0.16 0.93 0.13 1.31 -0.15 0.85-0.67 1.41-1.57 1.7 -0.9 0.29-2.05 0.55-3.45 0.79 -1.48 0.26-3.24 0.39-5.28 0.39 -2.01 0-3.6-0.29-4.76-0.87 -1.11-0.58-2.05-1.4-2.84-2.44 -1.34-2.1-1.78-4.86-1.31-8.29 0.23-1.66 0.71-3.19 1.42-4.61 0.71-1.41 1.53-2.61 2.47-3.6 0.73-0.73 1.44-1.32 2.14-1.79 0.7-0.46 1.44-0.83 2.21-1.09 0.77-0.26 1.62-0.44 2.55-0.55 0.93-0.1 2.01-0.14 3.23-0.11 0.35 0.03 0.79 0.09 1.31 0.18 0.52 0.09 1.07 0.26 1.64 0.5s1.13 0.61 1.68 1.09c0.55 0.48 1.03 1.12 1.44 1.92 0.41 0.8 0.69 1.77 0.85 2.92 0.16 1.15 0.14 2.54-0.06 4.17 -0.15 0.85-0.37 1.5-0.68 1.97 -0.31 0.47-0.65 0.81-1.02 1.02 -0.38 0.22-0.74 0.35-1.09 0.39 -0.35 0.04-0.61 0.07-0.78 0.07h-11c-0.06 0.5-0.01 0.93 0.13 1.31 0.14 0.38 0.32 0.69 0.52 0.92 0.32 0.41 0.8 0.69 1.44 0.85C1007.41 114.73 1008.38 114.78 1009.69 114.72zM1010.31 102.5c-1.11 0-2.06 0.26-2.86 0.79 -0.8 0.52-1.43 1.54-1.9 3.06h8.47c-0.03-1.51-0.36-2.53-1-3.06 -0.64-0.52-1.51-0.79-2.62-0.79H1010.31z"/>
  <path class="logo-text" d="M979.92 120.57c-0.58-0.06-1.1-0.15-1.55-0.28 -0.45-0.13-0.84-0.27-1.16-0.41 -1.75-0.84-2.98-2.2-3.69-4.06 -0.71-1.86-0.89-4.06-0.55-6.59 0.23-1.66 0.71-3.19 1.44-4.61 0.73-1.41 1.56-2.63 2.49-3.64 0.9-0.93 1.88-1.65 2.92-2.16 1.05-0.51 1.94-0.85 2.66-1.03 1.08-0.26 2.2-0.39 3.36-0.39 1.14 0 1.99 0.05 2.58 0.13l0.39 0.13 1.27-8.82c0.09-0.67 0.19-1.19 0.31-1.55 0.12-0.36 0.3-0.63 0.55-0.81 0.25-0.17 0.58-0.28 1-0.3 0.42-0.03 0.97-0.04 1.64-0.04h0.44c0.64 0 1.15 0.02 1.53 0.04s0.65 0.13 0.83 0.31c0.18 0.18 0.26 0.45 0.26 0.81 0 0.36-0.04 0.88-0.13 1.55l-3.8 26.81h0.96c0.38 0 0.68 0.13 0.92 0.39 0.23 0.26 0.32 0.58 0.26 0.96l-0.26 1.79c-0.03 0.2-0.14 0.43-0.33 0.68 -0.19 0.25-0.44 0.44-0.76 0.59 -0.23 0.06-0.76 0.17-1.59 0.33 -0.83 0.16-1.74 0.21-2.73 0.15 -1.25-0.09-2.1-0.46-2.53-1.13 -0.44 0.23-0.83 0.39-1.18 0.48 -1.31 0.49-2.78 0.74-4.41 0.74 -0.23 0-0.44 0-0.63 0 -0.19 0-0.34-0.01-0.46-0.04h-0.04v0H979.92zM981.8 114.85c0.29 0.06 0.75 0.04 1.38-0.04s1.27-0.22 1.94-0.39c0.29-0.11 0.57-0.22 0.85-0.3 0.28-0.09 0.47-0.16 0.59-0.22l1.48-10.56c-0.41-0.06-0.87-0.11-1.37-0.15 -0.51-0.04-1.06-0.06-1.64-0.06 -0.96 0-1.77 0.21-2.44 0.63 -0.67 0.42-1.22 0.97-1.64 1.64 -0.42 0.67-0.75 1.43-0.98 2.27s-0.39 1.69-0.48 2.53c-0.06 0.58-0.08 1.13-0.06 1.64 0.02 0.51 0.1 0.98 0.24 1.4s0.39 0.78 0.72 1.07C980.72 114.57 981.19 114.76 981.8 114.85z"/>
  <path class="logo-text" d="M967.31 117.51c-0.09 0.7-0.2 1.23-0.33 1.59s-0.32 0.63-0.57 0.81c-0.25 0.17-0.57 0.28-0.98 0.31 -0.41 0.03-0.95 0.04-1.62 0.04h-0.48c-0.67 0-1.19-0.01-1.55-0.04 -0.36-0.03-0.63-0.13-0.78-0.31 -0.16-0.17-0.24-0.44-0.24-0.81s0.04-0.9 0.13-1.59l2.05-14.36h-1c-0.38 0-0.68-0.13-0.92-0.39 -0.23-0.26-0.32-0.6-0.26-1l0.26-1.88c0.03-0.2 0.09-0.4 0.2-0.59 0.1-0.19 0.23-0.33 0.37-0.41 0.38-0.29 0.83-0.57 1.35-0.83 0.44-0.2 0.95-0.39 1.55-0.57 0.6-0.17 1.27-0.26 2.03-0.26 0.58 0 1.08 0.1 1.51 0.28 0.42 0.19 0.77 0.43 1.03 0.72 0.26 0.29 0.44 0.62 0.55 0.98 0.1 0.36 0.14 0.71 0.11 1.02L967.31 117.51zM964.47 89.22c0.12-0.78 0.24-1.38 0.37-1.79 0.13-0.41 0.33-0.71 0.59-0.92 0.26-0.2 0.61-0.32 1.05-0.35 0.44-0.03 1.03-0.04 1.79-0.04 0.84 0 1.51 0.02 1.99 0.04 0.48 0.03 0.84 0.14 1.07 0.33 0.23 0.19 0.35 0.5 0.35 0.92 0 0.42-0.06 1.03-0.17 1.81l-0.09 0.74c-0.12 0.79-0.24 1.38-0.37 1.79 -0.13 0.41-0.33 0.71-0.59 0.92 -0.26 0.2-0.62 0.32-1.07 0.35 -0.45 0.03-1.06 0.04-1.81 0.04 -0.84 0-1.5-0.01-1.96-0.02 -0.47-0.01-0.81-0.11-1.02-0.31 -0.22-0.19-0.34-0.49-0.35-0.92 -0.02-0.42 0.04-1.04 0.15-1.85L964.47 89.22z"/>
  <path class="logo-text" d="M954.13 115.59h0.92c0.41 0 0.72 0.13 0.94 0.39 0.22 0.26 0.3 0.58 0.24 0.96l-0.26 1.79c-0.03 0.2-0.2 0.45-0.52 0.74 -0.32 0.29-0.64 0.51-0.96 0.66 -0.15 0.06-0.58 0.15-1.31 0.28 -0.73 0.13-1.64 0.15-2.75 0.07 -0.81-0.09-1.43-0.31-1.83-0.65s-0.7-0.73-0.87-1.14c-0.17-0.41-0.26-0.8-0.26-1.18 0-0.38 0.02-0.65 0.04-0.83l3.93-27.85c0.09-0.67 0.19-1.19 0.31-1.55 0.12-0.36 0.29-0.63 0.52-0.81 0.23-0.17 0.56-0.28 0.98-0.3 0.42-0.03 0.97-0.04 1.64-0.04h0.48c0.67 0 1.19 0.02 1.57 0.04 0.38 0.03 0.65 0.13 0.83 0.31 0.18 0.18 0.26 0.45 0.26 0.81 0 0.36-0.04 0.88-0.13 1.55L954.13 115.59z"/>
  <path class="logo-text" d="M939.14 110.31c-0.83-1.77-2.75-1.69-4.19-2.38 -1.56-0.74-3.26-1.2-4.88-1.82 -0.52-0.2-0.94-0.6-0.75-1.23 0.3-0.98 0.88-1.73 2.01-1.8 1.15-0.07 2.24 0.31 3.35 0.5 2.99 0.5 5.96 1.09 8.93 1.69 1.14 0.23 1.43 0.83 1.21 2.03 -0.62 3.45-1.44 6.87-1.82 10.36 -0.06 0.55-0.25 1.11-0.49 1.61 -0.39 0.82-1.24 1.07-1.97 0.85 -0.68-0.21-1.3-0.76-1.14-1.74 0.09-0.59-0.04-1.22-0.07-1.82C939.22 114.46 939.55 112.37 939.14 110.31z"/>
  <path class="logo-text" d="M913.14 104.08c0.01-3.71 1.49-8.1 4.68-11.94 3.21-3.87 7.41-5.63 12.26-6.27 4.4-0.58 8.35 0.57 11.98 2.98 1.36 0.9 1.38 1.91 0.08 2.91 -1.85 1.43-3.74 1.71-6.04 0.85 -3.83-1.43-7.71-1.43-11.22 1.09 -5.05 3.63-6.94 11.32-3.24 16.41 2.73 3.75 7.51 5.21 12.02 3.29 0.77-0.32 1.52-0.68 2.27-1.03 0.45-0.21 0.96-0.47 1.34-0.1 0.31 0.31 0.21 0.89 0.07 1.29 -0.66 1.96-1.67 3.72-3.5 4.82 -2.06 1.24-4.32 2.05-6.7 1.79 -5.17-0.55-9.43-2.78-11.99-7.51C913.43 109.47 913.33 108.92 913.14 104.08z"/>
</svg>
