<svg xmlns="http://www.w3.org/2000/svg" xmlns:xlink="http://www.w3.org/1999/xlink" id="ei-sprite" style="display:none">
  
    <symbol id='close-icon' viewBox='0 0 32 32'>
      <path d="M20.377 16.52l6.567-6.567c.962-.963.962-2.54 0-3.502l-.876-.874c-.963-.964-2.54-.964-3.5 0L16 12.142 9.433 5.575c-.962-.963-2.538-.963-3.5 0l-.877.875c-.962.963-.962 2.54 0 3.502l6.566 6.566-6.566 6.567c-.962.963-.962 2.538 0 3.5l.876.877c.963.963 2.54.963 3.5 0L16 20.896l6.567 6.566c.962.963 2.538.963 3.5 0l.877-.876c.962-.963.962-2.538 0-3.5l-6.567-6.567z"></path>
    </symbol>
  
    <symbol id='chevron-up-icon' viewBox='0 0 32 32'>
      <path d="M18.22 7.206l9.586 9.585c.88.88.88 2.318 0 3.196l-.8.8c-.877.88-2.316.88-3.194 0l-7.315-7.314-7.315 7.315c-.878.878-2.317.878-3.194 0l-.8-.8c-.88-.88-.88-2.317 0-3.196l9.587-9.584c.47-.472 1.103-.682 1.723-.647.617-.036 1.25.174 1.723.646z"></path>
    </symbol>
  
    <symbol id='chevron-down-icon' viewBox='0 0 32 32'>
      <path d="M14.77 23.795L5.185 14.21c-.88-.88-.88-2.317 0-3.195l.8-.8c.877-.88 2.316-.88 3.194 0l7.314 7.314 7.316-7.316c.878-.878 2.317-.878 3.194 0l.8.8c.88.88.88 2.317 0 3.196l-9.587 9.585c-.47.472-1.104.682-1.723.647-.62.035-1.25-.175-1.724-.647z"></path>
    </symbol>
  
    <symbol id='check-icon' viewBox='0 0 32 32'>
      <path d="M30.17 6.13l-.857-.857c-.944-.945-2.49-.945-3.433 0L11.294 19.86 6.12 14.684c-.944-.944-2.49-.944-3.433 0l-.858.858c-.944.944-.944 2.49 0 3.433l7.743 7.75c.944.945 2.49.945 3.433 0L30.17 9.564c.942-.944.942-2.49 0-3.433z"></path>
    </symbol>
  
    <symbol id='chevron-left-icon' viewBox='0 0 32 32'>
      <path d="M7.7 14.276l9.587-9.585c.88-.877 2.317-.877 3.195 0l.8.8c.88.878.88 2.317 0 3.195L13.97 16l7.315 7.315c.878.878.878 2.317 0 3.194l-.8.8c-.88.878-2.317.878-3.196 0L7.7 17.72c-.47-.47-.68-1.102-.646-1.722-.034-.62.175-1.252.647-1.724z"></path>
    </symbol>
  
    <symbol id='chevron-right-icon' viewBox='0 0 32 32'>
      <path d="M24.29 14.276L14.706 4.69c-.878-.878-2.317-.878-3.195 0l-.8.8c-.878.877-.878 2.316 0 3.194L18.024 16l-7.315 7.315c-.88.878-.88 2.317 0 3.194l.8.8c.877.878 2.316.878 3.194 0l9.586-9.588c.472-.47.682-1.103.647-1.723.036-.62-.174-1.252-.646-1.724z"></path>
    </symbol>
  
</svg>
