<svg xmlns="http://www.w3.org/2000/svg" xmlns:xlink="http://www.w3.org/1999/xlink" id="ei-sprite" style="display:none">
  
    <symbol id='plus-icon' viewBox='0 0 32 32'>
      <path d="M19.096 13.424V4.138c0-1.36-1.115-2.477-2.476-2.476h-1.237c-1.362 0-2.48 1.116-2.475 2.476l-.002 9.287H3.62c-1.362 0-2.477 1.114-2.476 2.475l-.002 1.238c0 1.362 1.115 2.478 2.477 2.477h9.284v9.287c0 1.36 1.115 2.475 2.477 2.475h1.24c1.36 0 2.476-1.114 2.475-2.475v-9.286h9.287c1.362 0 2.476-1.115 2.476-2.476V15.9c0-1.36-1.114-2.476-2.475-2.475h-9.287z"></path>
    </symbol>
  
    <symbol id='check-icon' viewBox='0 0 32 32'>
      <path d="M30.17 6.13l-.857-.857c-.944-.945-2.49-.945-3.433 0L11.294 19.86 6.12 14.684c-.944-.944-2.49-.944-3.433 0l-.858.858c-.944.944-.944 2.49 0 3.433l7.743 7.75c.944.945 2.49.945 3.433 0L30.17 9.564c.942-.944.942-2.49 0-3.433z"></path>
    </symbol>
  
    <symbol id='chevron-down-icon' viewBox='0 0 32 32'>
      <path d="M14.77 23.795L5.185 14.21c-.88-.88-.88-2.317 0-3.195l.8-.8c.877-.88 2.316-.88 3.194 0l7.314 7.314 7.316-7.316c.878-.878 2.317-.878 3.194 0l.8.8c.88.88.88 2.317 0 3.196l-9.587 9.585c-.47.472-1.104.682-1.723.647-.62.035-1.25-.175-1.724-.647z"></path>
    </symbol>
  
    <symbol id='logo-linkedin-icon' viewBox='0 0 24 24'>
      <path d="M6.527 21.5h-5v-13h5v13zm-2.51-15h-.03C2.478 6.5 1.5 5.318 1.5 4.02c0-1.33 1.008-2.413 2.547-2.413 1.54 0 2.488 1.118 2.52 2.447-.002 1.3-.98 2.446-2.55 2.446zm11.51 6c-1.105 0-2 .896-2 2v7h-5s.06-12 0-13h5v1.485s1.548-1.443 3.938-1.443c2.962 0 5.062 2.144 5.062 6.304V21.5h-5v-7c0-1.104-.895-2-2-2z"></path>
    </symbol>
  
    <symbol id='logo-facebook-icon' viewBox='0 0 24 24'>
      <path d="M18.768 7.465H14.5V5.56c0-.896.594-1.105 1.012-1.105H18.5V.513L14.17.5C10.245.5 9.5 3.438 9.5 5.32v2.144h-3v4h3v12h5v-12h3.85l.418-4z"></path>
    </symbol>
  
    <symbol id='lock-icon' viewBox='-23 -24 32 32'>
      <path d="M5 8h-24c-1.2 0-2-.8-2-2v-16c0-1.2.8-2 2-2 0-6.6 5.4-12 12-12S5-18.6 5-12c1.2 0 2 .8 2 2V6c0 1.2-.8 2-2 2zM-7-20c-4.4 0-8 3.6-8 8H1c0-4.4-3.6-8-8-8zM3-8h-20V4H3V-8zM-7-6c1.2 0 2 .8 2 2v4c0 1.2-.8 2-2 2s-2-.8-2-2v-4c0-1.2.8-2 2-2z"></path>
    </symbol>
  
    <symbol id='chevron-left-icon' viewBox='0 0 32 32'>
      <path d="M7.7 14.276l9.587-9.585c.88-.877 2.317-.877 3.195 0l.8.8c.88.878.88 2.317 0 3.195L13.97 16l7.315 7.315c.878.878.878 2.317 0 3.194l-.8.8c-.88.878-2.317.878-3.196 0L7.7 17.72c-.47-.47-.68-1.102-.646-1.722-.034-.62.175-1.252.647-1.724z"></path>
    </symbol>
  
    <symbol id='unlock-icon' viewBox='-21 -24 28 32'>
      <path d="M5-12h-20c0-4.4 3.6-8 8-8 2.205 0 4.21.904 5.66 2.36.856.858 1.998.86 2.856 0 .858-.856.795-2-.062-2.856C-.72-22.658-3.71-24-7-24c-6.6 0-12 5.4-12 12-1.2 0-2 .8-2 2V6c0 1.2.8 2 2 2H5c1.2 0 2-.8 2-2v-16c0-1.2-.8-2-2-2zM3 4h-20V-8H3V4z"></path><path d="M-7-6c-1.2 0-2 .8-2 2v4c0 1.2.8 2 2 2s2-.8 2-2v-4c0-1.2-.8-2-2-2z"></path>
    </symbol>
  
    <symbol id='download-icon' viewBox='-16 -16 32 32'>
      <path d="M0-16c-8.872 0-16 7.127-16 16s7.128 16 16 16S16 8.873 16 0 8.872-16 0-16zM9.502 1.166L1.167 9.5c-.667.668-1.667.668-2.334 0L-9.5 1.166c-.667-.667-.667-1.667 0-2.333.667-.666 1.667-.666 2.333 0l5.5 5.5V-8.334c0-1 .668-1.667 1.668-1.667s1.668.668 1.668 1.667V4.333l5.5-5.5c.67-.667 1.668-.667 2.335 0 .664.666.664 1.667 0 2.333z"></path>
    </symbol>
  
    <symbol id='logo-twitter-icon' viewBox='0 0 24 24'>
      <path d="M23.444 4.834c-.814.363-1.5.375-2.227.016.938-.562.98-.957 1.32-2.02-.878.522-1.85.9-2.886 1.105-.827-.882-2.008-1.435-3.315-1.435-2.51 0-4.544 2.036-4.544 4.544 0 .356.04.703.118 1.036-3.776-.19-7.125-1.998-9.366-4.748-.39.67-.615 1.452-.615 2.285 0 1.577.803 2.967 2.02 3.782-.744-.025-1.444-.23-2.056-.57v.058c0 2.202 1.566 4.038 3.646 4.456-.666.18-1.368.21-2.053.08.58 1.803 2.257 3.117 4.245 3.154-1.945 1.524-4.356 2.16-6.728 1.88C3.012 19.75 5.4 20.5 7.966 20.5c8.358 0 12.928-6.924 12.928-12.93 0-.197-.003-.392-.012-.587.887-.64 1.953-1.237 2.562-2.15z"></path>
    </symbol>
  
    <symbol id='close-icon' viewBox='0 0 32 32'>
      <path d="M20.377 16.52l6.567-6.567c.962-.963.962-2.54 0-3.502l-.876-.874c-.963-.964-2.54-.964-3.5 0L16 12.142 9.433 5.575c-.962-.963-2.538-.963-3.5 0l-.877.875c-.962.963-.962 2.54 0 3.502l6.566 6.566-6.566 6.567c-.962.963-.962 2.538 0 3.5l.876.877c.963.963 2.54.963 3.5 0L16 20.896l6.567 6.566c.962.963 2.538.963 3.5 0l.877-.876c.962-.963.962-2.538 0-3.5l-6.567-6.567z"></path>
    </symbol>
  
    <symbol id='chevron-up-icon' viewBox='0 0 32 32'>
      <path d="M18.22 7.206l9.586 9.585c.88.88.88 2.318 0 3.196l-.8.8c-.877.88-2.316.88-3.194 0l-7.315-7.314-7.315 7.315c-.878.878-2.317.878-3.194 0l-.8-.8c-.88-.88-.88-2.317 0-3.196l9.587-9.584c.47-.472 1.103-.682 1.723-.647.617-.036 1.25.174 1.723.646z"></path>
    </symbol>
  
    <symbol id='logo-google-plus-icon' viewBox='0 0 24 24'>
      <path d="M15.92 11H7.5v3h5.277c-.25 1.777-1.818 3.5-4.527 3.5C5.355 17.5 3 15.145 3 12.25S5.355 7 8.25 7c1.268 0 2.492.458 3.447 1.29l.338.295 2.202-2.036-.398-.368C12.31 4.775 10.326 4 8.25 4 3.7 4 0 7.7 0 12.25s3.7 8.25 8.25 8.25c5.714 0 7.75-4.262 7.75-8.25 0-.27-.013-.535-.038-.797L15.92 11zM22 11V9h-3v2h-2v3h2v2h3v-2h2v-3"></path>
    </symbol>
  
    <symbol id='receipt-icon' viewBox='0 0 24 24'>
      <path d="M20.69.038c-.185-.077-.4-.035-.544.108L18.5 1.793 16.854.147c-.195-.195-.512-.195-.707 0L14.5 1.793 12.854.147c-.195-.195-.512-.195-.707 0L10.5 1.793 8.854.146c-.195-.195-.512-.195-.707 0L6.5 1.793 4.854.146C4.71.004 4.494-.038 4.31.038 4.12.115 4 .298 4 .5v23c0 .202.122.385.31.462.185.078.4.035.544-.108L6.5 22.207l1.646 1.647c.195.195.512.195.707 0l1.646-1.647 1.645 1.647c.195.195.512.195.707 0l1.646-1.647 1.646 1.647c.195.195.512.195.707 0l1.647-1.647 1.646 1.647c.1.095.227.146.357.146.064 0 .13-.012.19-.038.188-.077.31-.26.31-.462V.5c0-.202-.122-.385-.31-.462zM20 22.293l-1.146-1.146c-.195-.195-.512-.195-.707 0L16.5 22.793l-1.646-1.646c-.098-.098-.226-.147-.354-.147s-.256.05-.354.146L12.5 22.793l-1.646-1.646c-.195-.195-.512-.195-.707 0L8.5 22.793l-1.646-1.646c-.195-.195-.512-.195-.707 0L5 22.293V1.707l1.146 1.147c.195.195.512.195.707 0L8.5 1.207l1.646 1.647c.195.195.512.195.707 0L12.5 1.207l1.646 1.647c.195.195.512.195.707 0L16.5 1.207l1.646 1.647c.195.195.512.195.707 0L20 1.707v20.586z"></path><path d="M16 6.5c0-.276-.224-.5-.5-.5h-8c-.276 0-.5.224-.5.5s.224.5.5.5h8c.276 0 .5-.224.5-.5zM11.5 9h-4c-.276 0-.5.224-.5.5s.224.5.5.5h4c.276 0 .5-.224.5-.5s-.224-.5-.5-.5zM11.5 12h-4c-.276 0-.5.224-.5.5s.224.5.5.5h4c.276 0 .5-.224.5-.5s-.224-.5-.5-.5zM10.5 15h-3c-.276 0-.5.224-.5.5s.224.5.5.5h3c.276 0 .5-.224.5-.5s-.224-.5-.5-.5zM16 12c.552 0 1 .45 1 1 0 .276.224.5.5.5s.5-.224.5-.5c0-.737-.405-1.375-1-1.722V10.5c0-.276-.224-.5-.5-.5s-.5.224-.5.5v.5c-1.103 0-2 .897-2 2s.897 2 2 2c.552 0 1 .45 1 1s-.448 1-1 1-1-.45-1-1c0-.276-.224-.5-.5-.5s-.5.224-.5.5c0 .737.405 1.375 1 1.722v.778c0 .276.224.5.5.5s.5-.224.5-.5V18c1.103 0 2-.897 2-2s-.897-2-2-2c-.552 0-1-.45-1-1s.448-1 1-1z"></path>
    </symbol>
  
    <symbol id='logo-youtube-icon' viewBox='0 0 24 24'>
      <path d="M20.062 4H3.938C1.768 4 0 5.768 0 7.94v9.12C0 19.232 1.767 21 3.938 21h16.125C22.233 21 24 19.232 24 17.06V7.94C24 5.767 22.233 4 20.062 4zm-3.524 8.53l-6.77 4.332c-.08.052-.175.08-.268.08-.083 0-.165-.022-.24-.063-.16-.088-.26-.257-.26-.44V7.78c0-.185.1-.353.26-.44.16-.088.356-.08.51.017l6.77 4.332c.143.09.23.25.23.42 0 .17-.088.33-.232.42z"></path>
    </symbol>
  
    <symbol id='drag-icon' viewBox='-2 0 32 32'>
      <path d="M29.36 14.752c-1.403-1.42-2.815-2.83-4.234-4.234-.812-.802-1.805-.854-2.517-.158-.723.705-.663 1.736.15 2.578.4.412.803.822 1.352 1.386h-4.484c-.308 0-.615-.004-.922.002-1.077.024-1.79.695-1.788 1.673-.003.977.71 1.648 1.788 1.673.307.007.614.002.922.002h4.484c-.55.563-.95.974-1.35 1.386-.815.843-.875 1.874-.153 2.58.71.694 1.704.643 2.516-.158 1.42-1.404 2.83-2.814 4.233-4.235.402-.406.614-.827.64-1.247-.026-.42-.238-.84-.64-1.248zM-1.36 14.752c1.403-1.42 2.816-2.83 4.234-4.234.81-.802 1.806-.853 2.517-.158.723.705.662 1.736-.152 2.578-.398.412-.8.822-1.35 1.386h4.484c.308 0 .616-.004.922.002 1.078.024 1.79.695 1.79 1.673 0 .978-.712 1.648-1.79 1.673-.306.007-.614.002-.922.002H3.888c.55.563.952.974 1.35 1.386.814.843.875 1.874.153 2.58-.71.694-1.705.643-2.516-.158-1.418-1.404-2.83-2.814-4.233-4.234C-1.76 16.84-1.974 16.42-2 16c.025-.42.238-.84.64-1.248zM12.763.64c-1.42 1.403-2.83 2.816-4.234 4.234-.803.81-.855 1.806-.16 2.517.706.723 1.738.662 2.58-.152.41-.398.82-.8 1.385-1.35v4.484c0 .308-.004.616.002.922.025 1.078.695 1.79 1.674 1.788.98.002 1.65-.71 1.675-1.788.007-.307.002-.615.002-.922V5.888l1.386 1.35c.842.814 1.873.875 2.578.153.695-.71.646-1.705-.157-2.516C18.09 3.456 16.68 2.044 15.26.64c-.407-.4-.828-.615-1.25-.64-.42.025-.84.24-1.247.64zM12.763 31.358c-1.42-1.403-2.83-2.814-4.234-4.233-.803-.81-.854-1.806-.16-2.517.706-.722 1.737-.662 2.58.153.41.4.82.802 1.385 1.352v-4.485c0-.31-.004-.615.002-.922.024-1.077.695-1.79 1.674-1.79.98 0 1.65.713 1.675 1.79.006.307.002.613.002.922v4.485c.563-.55.975-.952 1.386-1.35.842-.816 1.873-.876 2.578-.154.696.71.645 1.706-.156 2.517-1.404 1.42-2.814 2.83-4.234 4.233-.407.402-.828.615-1.248.642-.422-.026-.843-.24-1.25-.642z"></path>
    </symbol>
  
    <symbol id='chevron-right-icon' viewBox='0 0 32 32'>
      <path d="M24.29 14.276L14.706 4.69c-.878-.878-2.317-.878-3.195 0l-.8.8c-.878.877-.878 2.316 0 3.194L18.024 16l-7.315 7.315c-.88.878-.88 2.317 0 3.194l.8.8c.877.878 2.316.878 3.194 0l9.586-9.588c.472-.47.682-1.103.647-1.723.036-.62-.174-1.252-.646-1.724z"></path>
    </symbol>
  
    <symbol id='file-zip-icon' viewBox='-10.8 -15 25.6 32'>
      <path d="M-.544 12.783c-.25 0-.458.083-.626.248-.166.165-.25.363-.25.597 0 .234.083.433.25.597.168.164.376.246.626.246H.27c.25 0 .46-.082.625-.246.167-.163.25-.363.25-.597 0-.233-.083-.43-.25-.596-.167-.165-.377-.247-.626-.247h-.814zm-2.564-1.686c-.25 0-.458.083-.625.247-.167.164-.25.364-.25.597 0 .235.083.434.25.6.167.162.375.244.625.244h.814c.25 0 .458-.082.625-.245.168-.165.25-.365.25-.6 0-.232-.082-.43-.25-.596-.166-.166-.374-.247-.624-.247h-.814zm2.564-1.685c-.25 0-.458.082-.626.246-.166.15-.25.35-.25.598 0 .246.083.453.25.615.168.166.376.242.626.227H.27c.25.015.46-.06.625-.226.167-.162.25-.37.25-.614 0-.233-.083-.432-.25-.598C.73 9.494.518 9.412.27 9.412h-.814zm-1.75 0c.25.014.458-.063.625-.226.168-.164.25-.37.25-.617 0-.234-.082-.434-.25-.598-.166-.165-.374-.246-.624-.246h-.814c-.25 0-.458.082-.625.246-.167.15-.25.35-.25.597 0 .245.083.452.25.616.167.164.375.24.625.226h.814zm1.75-3.352c-.25-.014-.458.06-.626.226-.166.15-.25.35-.25.597s.083.452.25.616c.168.164.376.24.626.226H.27c.25.015.46-.062.625-.227.167-.165.25-.37.25-.617 0-.22-.083-.413-.25-.577C.73 6.143.518 6.06.27 6.06h-.814zm-1.75 0c.25 0 .458-.083.625-.247.168-.164.25-.37.25-.616 0-.22-.082-.413-.25-.577-.166-.163-.374-.245-.624-.245h-.814c-.25 0-.458.082-.625.245-.167.164-.25.365-.25.6 0 .23.083.43.25.595.167.166.375.247.625.247l.814-.002zm1.75-3.373c-.25 0-.458.082-.626.246-.166.163-.25.363-.25.597 0 .232.083.43.25.596.168.164.376.247.626.247H.27c.25 0 .46-.083.625-.247.167-.165.25-.37.25-.617 0-.22-.083-.414-.25-.577C.73 2.77.518 2.687.27 2.687h-.814zm-1.75 0c.25 0 .458-.083.625-.247s.25-.364.25-.597c0-.232-.082-.432-.25-.596C-1.836 1.083-2.044 1-2.293 1h-.814c-.25 0-.458.083-.625.247s-.25.364-.25.596c0 .233.083.432.25.597.167.165.375.247.625.247h.814zm1.75-3.374c-.25 0-.458.083-.626.247-.166.164-.25.364-.25.596 0 .233.083.433.25.597C-1 .917-.794 1-.544 1H.27C.52 1 .73.917.894.753s.25-.364.25-.597c0-.232-.083-.432-.25-.596S.518-.687.27-.687h-.814zm-.208-5.265c-.14.124-.298.186-.48.186h-.375c-.195 0-.354-.062-.48-.186-.124-.122-.187-.28-.187-.472v-.66c.014-.217.125-.327.334-.327h1.063c.208.012.313.123.313.327v.66c0 .19-.063.35-.188.47zm-2.356-3.165c-.25 0-.458.082-.625.247-.167.164-.25.37-.25.616v4.997c-.015.494.145.905.48 1.234.333.33.756.493 1.27.493h1.626c.5.015.917-.144 1.25-.472.334-.33.502-.748.502-1.255v-4.997c0-.247-.083-.452-.25-.616C.73-9.036.518-9.117.27-9.117H-3.11zm15.468 23.69c-.5.494-1.105.74-1.813.74H-1.42c0-.233-.083-.43-.25-.597-.167-.164-.375-.247-.625-.247h-.814c-.25 0-.457.082-.624.246-.167.166-.25.364-.25.597h-2.564c-.694 0-1.293-.246-1.793-.74s-.75-1.09-.75-1.79v-23.587c-.016-.7.228-1.296.73-1.79.5-.493 1.104-.74 1.812-.74h8.964c.708.014 1.375.343 2 .988l7.777 7.938c.598.63.896 1.288.896 1.975v15.217c0 .7-.243 1.295-.73 1.79zM14.8-2.435c.013-1.152-.445-2.194-1.377-3.126l-7.817-7.96c-.848-.987-1.91-1.48-3.19-1.48h-8.963c-1.168 0-2.167.41-3 1.234-.835.822-1.252 1.81-1.252 2.962v23.587c0 1.167.418 2.16 1.25 2.982C-8.715 16.59-7.714 17-6.547 17h17.095c1.167 0 2.167-.41 3-1.234.834-.822 1.25-1.816 1.25-2.982l.002-15.22z"></path>
    </symbol>
  
    <symbol id='file-icon' viewBox='-10.8 -15 25.6 32'>
      <path d="M-3.962 9.412c-.25 0-.46.082-.625.246-.167.15-.25.35-.25.598 0 .246.083.453.25.615.166.166.375.242.625.227h5.94c.25.015.46-.06.626-.226.167-.162.25-.37.25-.614 0-.233-.083-.432-.25-.598-.166-.164-.376-.246-.625-.246h-5.942zm0-3.352c-.25-.014-.46.06-.625.226-.167.15-.25.35-.25.597s.083.452.25.616c.166.164.375.24.625.226H7.962c.25.015.46-.062.625-.227.167-.165.25-.37.25-.617 0-.22-.083-.413-.25-.577-.166-.165-.375-.246-.625-.246H-3.962zm0-3.373c-.25 0-.46.082-.625.246-.167.164-.25.364-.25.598 0 .233.083.432.25.597.166.165.375.247.625.247H7.962c.25 0 .46-.083.625-.247.167-.165.25-.37.25-.617 0-.22-.083-.413-.25-.576-.166-.165-.375-.247-.625-.247H-3.962zm0-3.374c-.25 0-.46.083-.625.247-.167.164-.25.364-.25.597 0 .232.083.432.25.596.166.164.375.247.625.247H7.962c.25 0 .46-.083.625-.247.167-.164.25-.364.25-.596 0-.233-.083-.433-.25-.597-.166-.164-.375-.247-.625-.247H-3.962zm8.38-11.66l7.776 7.938c.6.63.896 1.29.896 1.976v15.218c.016.7-.23 1.296-.73 1.79s-1.103.74-1.813.74H-6.548c-.693 0-1.292-.246-1.792-.74s-.75-1.09-.75-1.79v-23.587c-.015-.7.228-1.296.73-1.79.5-.493 1.104-.74 1.812-.74h8.964c.694 0 1.363.328 2.003.986zM-6.547-15c-1.167 0-2.166.41-3 1.234-.834.822-1.25 1.81-1.25 2.962v23.587c0 1.167.416 2.16 1.25 2.982.834.823 1.835 1.234 3 1.234h17.093c1.17 0 2.17-.412 3.002-1.235.837-.822 1.253-1.816 1.253-2.982V-2.435c.013-1.152-.445-2.194-1.377-3.126l-7.817-7.96c-.848-.987-1.91-1.48-3.19-1.48h-8.964z"></path>
    </symbol>
  
</svg>
